<svg id="visual" viewBox="0 0 1100 800" width="1100" height="800" xmlns="http://www.w3.org/2000/svg" xmlns:xlink="http://www.w3.org/1999/xlink" version="1.1"><rect x="0" y="0" width="1100" height="800" fill="#001220"></rect><path d="M0 317L26.2 334C52.3 351 104.7 385 157 384.8C209.3 384.7 261.7 350.3 314 337.7C366.3 325 418.7 334 471.2 350.8C523.7 367.7 576.3 392.3 628.8 396.5C681.3 400.7 733.7 384.3 786 367.5C838.3 350.7 890.7 333.3 943 333.7C995.3 334 1047.7 352 1073.8 361L1100 370L1100 801L1073.8 801C1047.7 801 995.3 801 943 801C890.7 801 838.3 801 786 801C733.7 801 681.3 801 628.8 801C576.3 801 523.7 801 471.2 801C418.7 801 366.3 801 314 801C261.7 801 209.3 801 157 801C104.7 801 52.3 801 26.2 801L0 801Z" fill="#244bc7"></path><path d="M0 388L26.2 400.7C52.3 413.3 104.7 438.7 157 443.3C209.3 448 261.7 432 314 424.5C366.3 417 418.7 418 471.2 413.2C523.7 408.3 576.3 397.7 628.8 402.7C681.3 407.7 733.7 428.3 786 438.5C838.3 448.7 890.7 448.3 943 442.5C995.3 436.7 1047.7 425.3 1073.8 419.7L1100 414L1100 801L1073.8 801C1047.7 801 995.3 801 943 801C890.7 801 838.3 801 786 801C733.7 801 681.3 801 628.8 801C576.3 801 523.7 801 471.2 801C418.7 801 366.3 801 314 801C261.7 801 209.3 801 157 801C104.7 801 52.3 801 26.2 801L0 801Z" fill="#0067d8"></path><path d="M0 546L26.2 534C52.3 522 104.7 498 157 480.3C209.3 462.7 261.7 451.3 314 458.7C366.3 466 418.7 492 471.2 495C523.7 498 576.3 478 628.8 480.7C681.3 483.3 733.7 508.7 786 523.2C838.3 537.7 890.7 541.3 943 541C995.3 540.7 1047.7 536.3 1073.8 534.2L1100 532L1100 801L1073.8 801C1047.7 801 995.3 801 943 801C890.7 801 838.3 801 786 801C733.7 801 681.3 801 628.8 801C576.3 801 523.7 801 471.2 801C418.7 801 366.3 801 314 801C261.7 801 209.3 801 157 801C104.7 801 52.3 801 26.2 801L0 801Z" fill="#0080e5"></path><path d="M0 593L26.2 586.8C52.3 580.7 104.7 568.3 157 561C209.3 553.7 261.7 551.3 314 555C366.3 558.7 418.7 568.3 471.2 573.3C523.7 578.3 576.3 578.7 628.8 572.7C681.3 566.7 733.7 554.3 786 550.3C838.3 546.3 890.7 550.7 943 557C995.3 563.3 1047.7 571.7 1073.8 575.8L1100 580L1100 801L1073.8 801C1047.7 801 995.3 801 943 801C890.7 801 838.3 801 786 801C733.7 801 681.3 801 628.8 801C576.3 801 523.7 801 471.2 801C418.7 801 366.3 801 314 801C261.7 801 209.3 801 157 801C104.7 801 52.3 801 26.2 801L0 801Z" fill="#0099ef"></path><path d="M0 573L26.2 577.7C52.3 582.3 104.7 591.7 157 602.8C209.3 614 261.7 627 314 628.7C366.3 630.3 418.7 620.7 471.2 610.3C523.7 600 576.3 589 628.8 582.8C681.3 576.7 733.7 575.3 786 580.2C838.3 585 890.7 596 943 607C995.3 618 1047.7 629 1073.8 634.5L1100 640L1100 801L1073.8 801C1047.7 801 995.3 801 943 801C890.7 801 838.3 801 786 801C733.7 801 681.3 801 628.8 801C576.3 801 523.7 801 471.2 801C418.7 801 366.3 801 314 801C261.7 801 209.3 801 157 801C104.7 801 52.3 801 26.2 801L0 801Z" fill="#09b0f5"></path><path d="M0 707L26.2 702.7C52.3 698.3 104.7 689.7 157 689.2C209.3 688.7 261.7 696.3 314 694.3C366.3 692.3 418.7 680.7 471.2 681.3C523.7 682 576.3 695 628.8 696.8C681.3 698.7 733.7 689.3 786 689.3C838.3 689.3 890.7 698.7 943 700.7C995.3 702.7 1047.7 697.3 1073.8 694.7L1100 692L1100 801L1073.8 801C1047.7 801 995.3 801 943 801C890.7 801 838.3 801 786 801C733.7 801 681.3 801 628.8 801C576.3 801 523.7 801 471.2 801C418.7 801 366.3 801 314 801C261.7 801 209.3 801 157 801C104.7 801 52.3 801 26.2 801L0 801Z" fill="#3ec6f8"></path><path d="M0 744L26.2 743.2C52.3 742.3 104.7 740.7 157 742.5C209.3 744.3 261.7 749.7 314 749.7C366.3 749.7 418.7 744.3 471.2 745C523.7 745.7 576.3 752.3 628.8 754.3C681.3 756.3 733.7 753.7 786 754.3C838.3 755 890.7 759 943 760.8C995.3 762.7 1047.7 762.3 1073.8 762.2L1100 762L1100 801L1073.8 801C1047.7 801 995.3 801 943 801C890.7 801 838.3 801 786 801C733.7 801 681.3 801 628.8 801C576.3 801 523.7 801 471.2 801C418.7 801 366.3 801 314 801C261.7 801 209.3 801 157 801C104.7 801 52.3 801 26.2 801L0 801Z" fill="#69dbfa"></path></svg>