<svg id="visual" viewBox="0 0 960 540" width="960" height="540" xmlns="http://www.w3.org/2000/svg" xmlns:xlink="http://www.w3.org/1999/xlink" version="1.1"><rect x="0" y="0" width="960" height="540" fill="#001220"></rect><path d="M0 228L8.5 217.8C17 207.7 34 187.3 50.8 174.2C67.7 161 84.3 155 101.2 149.7C118 144.3 135 139.7 151.8 151.7C168.7 163.7 185.3 192.3 202.2 194.2C219 196 236 171 252.8 156.8C269.7 142.7 286.3 139.3 303.2 140.2C320 141 337 146 353.8 152.3C370.7 158.7 387.3 166.3 404.2 174C421 181.7 438 189.3 454.8 188C471.7 186.7 488.3 176.3 505.2 179.2C522 182 539 198 555.8 194.3C572.7 190.7 589.3 167.3 606.2 163C623 158.7 640 173.3 656.8 191.8C673.7 210.3 690.3 232.7 707.2 247.3C724 262 741 269 757.8 248.2C774.7 227.3 791.3 178.7 808.2 173C825 167.3 842 204.7 858.8 226.2C875.7 247.7 892.3 253.3 909.2 234.7C926 216 943 173 951.5 151.5L960 130L960 541L951.5 541C943 541 926 541 909.2 541C892.3 541 875.7 541 858.8 541C842 541 825 541 808.2 541C791.3 541 774.7 541 757.8 541C741 541 724 541 707.2 541C690.3 541 673.7 541 656.8 541C640 541 623 541 606.2 541C589.3 541 572.7 541 555.8 541C539 541 522 541 505.2 541C488.3 541 471.7 541 454.8 541C438 541 421 541 404.2 541C387.3 541 370.7 541 353.8 541C337 541 320 541 303.2 541C286.3 541 269.7 541 252.8 541C236 541 219 541 202.2 541C185.3 541 168.7 541 151.8 541C135 541 118 541 101.2 541C84.3 541 67.7 541 50.8 541C34 541 17 541 8.5 541L0 541Z" fill="#2455c7"></path><path d="M0 215L8.5 219C17 223 34 231 50.8 236C67.7 241 84.3 243 101.2 238C118 233 135 221 151.8 215C168.7 209 185.3 209 202.2 205.8C219 202.7 236 196.3 252.8 203C269.7 209.7 286.3 229.3 303.2 230.5C320 231.7 337 214.3 353.8 217.7C370.7 221 387.3 245 404.2 243.8C421 242.7 438 216.3 454.8 202.7C471.7 189 488.3 188 505.2 201.7C522 215.3 539 243.7 555.8 257C572.7 270.3 589.3 268.7 606.2 266.2C623 263.7 640 260.3 656.8 254.7C673.7 249 690.3 241 707.2 228.7C724 216.3 741 199.7 757.8 206.3C774.7 213 791.3 243 808.2 256.3C825 269.7 842 266.3 858.8 248C875.7 229.7 892.3 196.3 909.2 178.8C926 161.3 943 159.7 951.5 158.8L960 158L960 541L951.5 541C943 541 926 541 909.2 541C892.3 541 875.7 541 858.8 541C842 541 825 541 808.2 541C791.3 541 774.7 541 757.8 541C741 541 724 541 707.2 541C690.3 541 673.7 541 656.8 541C640 541 623 541 606.2 541C589.3 541 572.7 541 555.8 541C539 541 522 541 505.2 541C488.3 541 471.7 541 454.8 541C438 541 421 541 404.2 541C387.3 541 370.7 541 353.8 541C337 541 320 541 303.2 541C286.3 541 269.7 541 252.8 541C236 541 219 541 202.2 541C185.3 541 168.7 541 151.8 541C135 541 118 541 101.2 541C84.3 541 67.7 541 50.8 541C34 541 17 541 8.5 541L0 541Z" fill="#0067d0"></path><path d="M0 273L8.5 274.3C17 275.7 34 278.3 50.8 265.5C67.7 252.7 84.3 224.3 101.2 225.7C118 227 135 258 151.8 269.7C168.7 281.3 185.3 273.7 202.2 262.5C219 251.3 236 236.7 252.8 239.8C269.7 243 286.3 264 303.2 273.8C320 283.7 337 282.3 353.8 280.3C370.7 278.3 387.3 275.7 404.2 271.7C421 267.7 438 262.3 454.8 255.3C471.7 248.3 488.3 239.7 505.2 232.8C522 226 539 221 555.8 235C572.7 249 589.3 282 606.2 277C623 272 640 229 656.8 213.5C673.7 198 690.3 210 707.2 221.5C724 233 741 244 757.8 252.2C774.7 260.3 791.3 265.7 808.2 266.7C825 267.7 842 264.3 858.8 258.7C875.7 253 892.3 245 909.2 234.7C926 224.3 943 211.7 951.5 205.3L960 199L960 541L951.5 541C943 541 926 541 909.2 541C892.3 541 875.7 541 858.8 541C842 541 825 541 808.2 541C791.3 541 774.7 541 757.8 541C741 541 724 541 707.2 541C690.3 541 673.7 541 656.8 541C640 541 623 541 606.2 541C589.3 541 572.7 541 555.8 541C539 541 522 541 505.2 541C488.3 541 471.7 541 454.8 541C438 541 421 541 404.2 541C387.3 541 370.7 541 353.8 541C337 541 320 541 303.2 541C286.3 541 269.7 541 252.8 541C236 541 219 541 202.2 541C185.3 541 168.7 541 151.8 541C135 541 118 541 101.2 541C84.3 541 67.7 541 50.8 541C34 541 17 541 8.5 541L0 541Z" fill="#0077d6"></path><path d="M0 272L8.5 274.7C17 277.3 34 282.7 50.8 274.7C67.7 266.7 84.3 245.3 101.2 239.8C118 234.3 135 244.7 151.8 255.5C168.7 266.3 185.3 277.7 202.2 274.2C219 270.7 236 252.3 252.8 259.7C269.7 267 286.3 300 303.2 308C320 316 337 299 353.8 286.5C370.7 274 387.3 266 404.2 263C421 260 438 262 454.8 262C471.7 262 488.3 260 505.2 263.3C522 266.7 539 275.3 555.8 282C572.7 288.7 589.3 293.3 606.2 284.3C623 275.3 640 252.7 656.8 241C673.7 229.3 690.3 228.7 707.2 244.7C724 260.7 741 293.3 757.8 308.7C774.7 324 791.3 322 808.2 319C825 316 842 312 858.8 313.5C875.7 315 892.3 322 909.2 316C926 310 943 291 951.5 281.5L960 272L960 541L951.5 541C943 541 926 541 909.2 541C892.3 541 875.7 541 858.8 541C842 541 825 541 808.2 541C791.3 541 774.7 541 757.8 541C741 541 724 541 707.2 541C690.3 541 673.7 541 656.8 541C640 541 623 541 606.2 541C589.3 541 572.7 541 555.8 541C539 541 522 541 505.2 541C488.3 541 471.7 541 454.8 541C438 541 421 541 404.2 541C387.3 541 370.7 541 353.8 541C337 541 320 541 303.2 541C286.3 541 269.7 541 252.8 541C236 541 219 541 202.2 541C185.3 541 168.7 541 151.8 541C135 541 118 541 101.2 541C84.3 541 67.7 541 50.8 541C34 541 17 541 8.5 541L0 541Z" fill="#0087da"></path><path d="M0 281L8.5 288.5C17 296 34 311 50.8 319.8C67.7 328.7 84.3 331.3 101.2 326.2C118 321 135 308 151.8 309.7C168.7 311.3 185.3 327.7 202.2 337.7C219 347.7 236 351.3 252.8 335.8C269.7 320.3 286.3 285.7 303.2 270.7C320 255.7 337 260.3 353.8 259.5C370.7 258.7 387.3 252.3 404.2 251C421 249.7 438 253.3 454.8 260C471.7 266.7 488.3 276.3 505.2 282C522 287.7 539 289.3 555.8 300.5C572.7 311.7 589.3 332.3 606.2 324.7C623 317 640 281 656.8 277.8C673.7 274.7 690.3 304.3 707.2 316.3C724 328.3 741 322.7 757.8 324.5C774.7 326.3 791.3 335.7 808.2 337.5C825 339.3 842 333.7 858.8 335.2C875.7 336.7 892.3 345.3 909.2 336.3C926 327.3 943 300.7 951.5 287.3L960 274L960 541L951.5 541C943 541 926 541 909.2 541C892.3 541 875.7 541 858.8 541C842 541 825 541 808.2 541C791.3 541 774.7 541 757.8 541C741 541 724 541 707.2 541C690.3 541 673.7 541 656.8 541C640 541 623 541 606.2 541C589.3 541 572.7 541 555.8 541C539 541 522 541 505.2 541C488.3 541 471.7 541 454.8 541C438 541 421 541 404.2 541C387.3 541 370.7 541 353.8 541C337 541 320 541 303.2 541C286.3 541 269.7 541 252.8 541C236 541 219 541 202.2 541C185.3 541 168.7 541 151.8 541C135 541 118 541 101.2 541C84.3 541 67.7 541 50.8 541C34 541 17 541 8.5 541L0 541Z" fill="#0096dd"></path><path d="M0 329L8.5 323.7C17 318.3 34 307.7 50.8 310.2C67.7 312.7 84.3 328.3 101.2 328.3C118 328.3 135 312.7 151.8 314.8C168.7 317 185.3 337 202.2 350.2C219 363.3 236 369.7 252.8 368.5C269.7 367.3 286.3 358.7 303.2 345.7C320 332.7 337 315.3 353.8 304.8C370.7 294.3 387.3 290.7 404.2 292.8C421 295 438 303 454.8 308.3C471.7 313.7 488.3 316.3 505.2 315.2C522 314 539 309 555.8 318.7C572.7 328.3 589.3 352.7 606.2 358.5C623 364.3 640 351.7 656.8 351.2C673.7 350.7 690.3 362.3 707.2 370.5C724 378.7 741 383.3 757.8 369.3C774.7 355.3 791.3 322.7 808.2 318.7C825 314.7 842 339.3 858.8 344C875.7 348.7 892.3 333.3 909.2 325.8C926 318.3 943 318.7 951.5 318.8L960 319L960 541L951.5 541C943 541 926 541 909.2 541C892.3 541 875.7 541 858.8 541C842 541 825 541 808.2 541C791.3 541 774.7 541 757.8 541C741 541 724 541 707.2 541C690.3 541 673.7 541 656.8 541C640 541 623 541 606.2 541C589.3 541 572.7 541 555.8 541C539 541 522 541 505.2 541C488.3 541 471.7 541 454.8 541C438 541 421 541 404.2 541C387.3 541 370.7 541 353.8 541C337 541 320 541 303.2 541C286.3 541 269.7 541 252.8 541C236 541 219 541 202.2 541C185.3 541 168.7 541 151.8 541C135 541 118 541 101.2 541C84.3 541 67.7 541 50.8 541C34 541 17 541 8.5 541L0 541Z" fill="#33a4de"></path><path d="M0 321L8.5 323.8C17 326.7 34 332.3 50.8 341.5C67.7 350.7 84.3 363.3 101.2 368.5C118 373.7 135 371.3 151.8 368.8C168.7 366.3 185.3 363.7 202.2 365.7C219 367.7 236 374.3 252.8 377.7C269.7 381 286.3 381 303.2 384.8C320 388.7 337 396.3 353.8 389.5C370.7 382.7 387.3 361.3 404.2 348.7C421 336 438 332 454.8 328.7C471.7 325.3 488.3 322.7 505.2 324.7C522 326.7 539 333.3 555.8 343.5C572.7 353.7 589.3 367.3 606.2 374C623 380.7 640 380.3 656.8 377.2C673.7 374 690.3 368 707.2 370.7C724 373.3 741 384.7 757.8 391.3C774.7 398 791.3 400 808.2 392.5C825 385 842 368 858.8 357.7C875.7 347.3 892.3 343.7 909.2 343.5C926 343.3 943 346.7 951.5 348.3L960 350L960 541L951.5 541C943 541 926 541 909.2 541C892.3 541 875.7 541 858.8 541C842 541 825 541 808.2 541C791.3 541 774.7 541 757.8 541C741 541 724 541 707.2 541C690.3 541 673.7 541 656.8 541C640 541 623 541 606.2 541C589.3 541 572.7 541 555.8 541C539 541 522 541 505.2 541C488.3 541 471.7 541 454.8 541C438 541 421 541 404.2 541C387.3 541 370.7 541 353.8 541C337 541 320 541 303.2 541C286.3 541 269.7 541 252.8 541C236 541 219 541 202.2 541C185.3 541 168.7 541 151.8 541C135 541 118 541 101.2 541C84.3 541 67.7 541 50.8 541C34 541 17 541 8.5 541L0 541Z" fill="#53b2de"></path><path d="M0 385L8.5 383.2C17 381.3 34 377.7 50.8 378.3C67.7 379 84.3 384 101.2 385C118 386 135 383 151.8 383.7C168.7 384.3 185.3 388.7 202.2 386.7C219 384.7 236 376.3 252.8 374.7C269.7 373 286.3 378 303.2 379.3C320 380.7 337 378.3 353.8 380.3C370.7 382.3 387.3 388.7 404.2 385.8C421 383 438 371 454.8 370.8C471.7 370.7 488.3 382.3 505.2 393.7C522 405 539 416 555.8 418.2C572.7 420.3 589.3 413.7 606.2 404C623 394.3 640 381.7 656.8 376.3C673.7 371 690.3 373 707.2 379.7C724 386.3 741 397.7 757.8 400.2C774.7 402.7 791.3 396.3 808.2 394.2C825 392 842 394 858.8 390C875.7 386 892.3 376 909.2 381.8C926 387.7 943 409.3 951.5 420.2L960 431L960 541L951.5 541C943 541 926 541 909.2 541C892.3 541 875.7 541 858.8 541C842 541 825 541 808.2 541C791.3 541 774.7 541 757.8 541C741 541 724 541 707.2 541C690.3 541 673.7 541 656.8 541C640 541 623 541 606.2 541C589.3 541 572.7 541 555.8 541C539 541 522 541 505.2 541C488.3 541 471.7 541 454.8 541C438 541 421 541 404.2 541C387.3 541 370.7 541 353.8 541C337 541 320 541 303.2 541C286.3 541 269.7 541 252.8 541C236 541 219 541 202.2 541C185.3 541 168.7 541 151.8 541C135 541 118 541 101.2 541C84.3 541 67.7 541 50.8 541C34 541 17 541 8.5 541L0 541Z" fill="#70bfdf"></path><path d="M0 432L8.5 430.8C17 429.7 34 427.3 50.8 427.8C67.7 428.3 84.3 431.7 101.2 429.7C118 427.7 135 420.3 151.8 424C168.7 427.7 185.3 442.3 202.2 446.3C219 450.3 236 443.7 252.8 433.7C269.7 423.7 286.3 410.3 303.2 411.8C320 413.3 337 429.7 353.8 439.3C370.7 449 387.3 452 404.2 451.5C421 451 438 447 454.8 438.5C471.7 430 488.3 417 505.2 412.3C522 407.7 539 411.3 555.8 420.2C572.7 429 589.3 443 606.2 445.2C623 447.3 640 437.7 656.8 431.5C673.7 425.3 690.3 422.7 707.2 417.8C724 413 741 406 757.8 410.8C774.7 415.7 791.3 432.3 808.2 433.5C825 434.7 842 420.3 858.8 410C875.7 399.7 892.3 393.3 909.2 395.2C926 397 943 407 951.5 412L960 417L960 541L951.5 541C943 541 926 541 909.2 541C892.3 541 875.7 541 858.8 541C842 541 825 541 808.2 541C791.3 541 774.7 541 757.8 541C741 541 724 541 707.2 541C690.3 541 673.7 541 656.8 541C640 541 623 541 606.2 541C589.3 541 572.7 541 555.8 541C539 541 522 541 505.2 541C488.3 541 471.7 541 454.8 541C438 541 421 541 404.2 541C387.3 541 370.7 541 353.8 541C337 541 320 541 303.2 541C286.3 541 269.7 541 252.8 541C236 541 219 541 202.2 541C185.3 541 168.7 541 151.8 541C135 541 118 541 101.2 541C84.3 541 67.7 541 50.8 541C34 541 17 541 8.5 541L0 541Z" fill="#8ccbe0"></path><path d="M0 476L8.5 467C17 458 34 440 50.8 430.3C67.7 420.7 84.3 419.3 101.2 420C118 420.7 135 423.3 151.8 432C168.7 440.7 185.3 455.3 202.2 453.2C219 451 236 432 252.8 422.5C269.7 413 286.3 413 303.2 424C320 435 337 457 353.8 459.5C370.7 462 387.3 445 404.2 440.5C421 436 438 444 454.8 449C471.7 454 488.3 456 505.2 459.8C522 463.7 539 469.3 555.8 467.3C572.7 465.3 589.3 455.7 606.2 446C623 436.3 640 426.7 656.8 429.3C673.7 432 690.3 447 707.2 447.5C724 448 741 434 757.8 429.2C774.7 424.3 791.3 428.7 808.2 431C825 433.3 842 433.7 858.8 432C875.7 430.3 892.3 426.7 909.2 428.7C926 430.7 943 438.3 951.5 442.2L960 446L960 541L951.5 541C943 541 926 541 909.2 541C892.3 541 875.7 541 858.8 541C842 541 825 541 808.2 541C791.3 541 774.7 541 757.8 541C741 541 724 541 707.2 541C690.3 541 673.7 541 656.8 541C640 541 623 541 606.2 541C589.3 541 572.7 541 555.8 541C539 541 522 541 505.2 541C488.3 541 471.7 541 454.8 541C438 541 421 541 404.2 541C387.3 541 370.7 541 353.8 541C337 541 320 541 303.2 541C286.3 541 269.7 541 252.8 541C236 541 219 541 202.2 541C185.3 541 168.7 541 151.8 541C135 541 118 541 101.2 541C84.3 541 67.7 541 50.8 541C34 541 17 541 8.5 541L0 541Z" fill="#a8d7e3"></path><path d="M0 500L8.5 494.7C17 489.3 34 478.7 50.8 476.2C67.7 473.7 84.3 479.3 101.2 481.7C118 484 135 483 151.8 480.7C168.7 478.3 185.3 474.7 202.2 469.5C219 464.3 236 457.7 252.8 459.7C269.7 461.7 286.3 472.3 303.2 473C320 473.7 337 464.3 353.8 466.5C370.7 468.7 387.3 482.3 404.2 489.5C421 496.7 438 497.3 454.8 493.2C471.7 489 488.3 480 505.2 474.2C522 468.3 539 465.7 555.8 468.5C572.7 471.3 589.3 479.7 606.2 477C623 474.3 640 460.7 656.8 460.3C673.7 460 690.3 473 707.2 481.3C724 489.7 741 493.3 757.8 495.3C774.7 497.3 791.3 497.7 808.2 498.2C825 498.7 842 499.3 858.8 493.3C875.7 487.3 892.3 474.7 909.2 473.8C926 473 943 484 951.5 489.5L960 495L960 541L951.5 541C943 541 926 541 909.2 541C892.3 541 875.7 541 858.8 541C842 541 825 541 808.2 541C791.3 541 774.7 541 757.8 541C741 541 724 541 707.2 541C690.3 541 673.7 541 656.8 541C640 541 623 541 606.2 541C589.3 541 572.7 541 555.8 541C539 541 522 541 505.2 541C488.3 541 471.7 541 454.8 541C438 541 421 541 404.2 541C387.3 541 370.7 541 353.8 541C337 541 320 541 303.2 541C286.3 541 269.7 541 252.8 541C236 541 219 541 202.2 541C185.3 541 168.7 541 151.8 541C135 541 118 541 101.2 541C84.3 541 67.7 541 50.8 541C34 541 17 541 8.5 541L0 541Z" fill="#c4e2e7"></path><path d="M0 512L8.5 511.8C17 511.7 34 511.3 50.8 510.5C67.7 509.7 84.3 508.3 101.2 504.5C118 500.7 135 494.3 151.8 492.7C168.7 491 185.3 494 202.2 492.8C219 491.7 236 486.3 252.8 484C269.7 481.7 286.3 482.3 303.2 489.3C320 496.3 337 509.7 353.8 512.7C370.7 515.7 387.3 508.3 404.2 506.5C421 504.7 438 508.3 454.8 509.5C471.7 510.7 488.3 509.3 505.2 507C522 504.7 539 501.3 555.8 500.3C572.7 499.3 589.3 500.7 606.2 501C623 501.3 640 500.7 656.8 501.3C673.7 502 690.3 504 707.2 503.7C724 503.3 741 500.7 757.8 502.5C774.7 504.3 791.3 510.7 808.2 511C825 511.3 842 505.7 858.8 501.2C875.7 496.7 892.3 493.3 909.2 493.7C926 494 943 498 951.5 500L960 502L960 541L951.5 541C943 541 926 541 909.2 541C892.3 541 875.7 541 858.8 541C842 541 825 541 808.2 541C791.3 541 774.7 541 757.8 541C741 541 724 541 707.2 541C690.3 541 673.7 541 656.8 541C640 541 623 541 606.2 541C589.3 541 572.7 541 555.8 541C539 541 522 541 505.2 541C488.3 541 471.7 541 454.8 541C438 541 421 541 404.2 541C387.3 541 370.7 541 353.8 541C337 541 320 541 303.2 541C286.3 541 269.7 541 252.8 541C236 541 219 541 202.2 541C185.3 541 168.7 541 151.8 541C135 541 118 541 101.2 541C84.3 541 67.7 541 50.8 541C34 541 17 541 8.5 541L0 541Z" fill="#dfedee"></path></svg>